<?xml version="1.0" standalone="no"?>
<!DOCTYPE svg PUBLIC "-//W3C//DTD SVG 20010904//EN"
 "http://www.w3.org/TR/2001/REC-SVG-20010904/DTD/svg10.dtd">
<svg version="1.0" xmlns="http://www.w3.org/2000/svg"
 width="16.000000pt" height="16.000000pt" viewBox="0 0 16.000000 16.000000"
 preserveAspectRatio="xMidYMid meet">
<metadata>
Created by potrace 1.11, written by Peter Selinger 2001-2013
</metadata>
<g transform="translate(0.000000,16.000000) scale(0.002909,-0.002909)"
fill="#000000" stroke="none">
<path d="M2460 4819 c-76 -15 -165 -65 -215 -122 -52 -57 -65 -83 -65 -128 0
-70 -21 -118 -76 -171 -64 -62 -94 -79 -228 -125 -89 -31 -107 -34 -156 -27
-120 18 -296 -2 -515 -58 -255 -64 -371 -104 -454 -157 -27 -17 -61 -31 -78
-31 -35 0 -92 -43 -172 -132 -48 -52 -53 -63 -57 -115 -11 -119 -43 -224 -86
-281 -66 -88 -97 -165 -104 -262 -6 -75 -4 -91 15 -130 12 -24 28 -80 37 -125
8 -44 18 -91 21 -105 9 -36 3 -132 -13 -225 -8 -44 -17 -130 -20 -191 -6 -98
-4 -118 15 -177 19 -55 34 -78 84 -129 39 -38 83 -70 117 -86 130 -57 278
-141 330 -188 21 -19 77 -53 126 -75 55 -26 114 -63 157 -100 38 -33 89 -69
113 -81 45 -21 98 -77 127 -133 8 -16 18 -73 22 -126 7 -88 5 -105 -20 -189
-24 -82 -27 -111 -29 -249 -1 -193 9 -302 40 -406 12 -44 27 -106 33 -137 6
-31 25 -94 44 -140 18 -46 39 -103 46 -127 26 -90 28 -91 159 -91 l116 0 -35
38 c-48 49 -74 90 -92 138 -34 90 -76 235 -96 329 -11 55 -32 141 -46 190 -14
50 -28 128 -31 175 -6 79 -4 93 29 192 68 203 201 432 315 541 46 43 68 57 90
57 46 0 109 -55 179 -155 75 -109 136 -173 189 -200 121 -61 280 -162 321
-204 47 -47 128 -182 121 -202 -2 -5 -31 15 -65 45 -55 50 -103 72 -103 47 0
-5 22 -69 49 -143 47 -131 65 -188 58 -188 -3 0 -23 28 -45 62 -67 102 -80
116 -92 98 -18 -27 -11 -45 57 -151 37 -57 83 -135 103 -173 63 -121 72 -98
45 119 -8 65 -15 128 -15 140 1 29 56 -79 70 -137 13 -52 27 -59 56 -27 18 20
18 24 1 117 -9 53 -19 108 -22 122 -4 20 28 -38 69 -125 6 -12 56 41 56 60 0
8 12 13 33 13 39 1 58 7 227 70 74 27 167 55 205 62 66 12 73 16 124 69 169
178 375 425 519 624 171 237 453 673 498 772 26 57 41 140 27 148 -5 3 -41
-40 -80 -96 -121 -177 -347 -458 -451 -564 -143 -145 -248 -211 -389 -247
-128 -32 -561 -52 -788 -37 -152 10 -164 13 -231 46 -47 23 -127 82 -237 174
-191 159 -126 128 -702 336 -366 133 -387 140 -500 173 -38 11 -124 37 -190
58 -101 33 -133 39 -205 38 -75 0 -95 -4 -153 -31 -73 -35 -101 -68 -112 -135
-4 -21 -11 -38 -15 -38 -28 0 -90 119 -90 170 0 28 51 198 111 373 11 31 18
61 15 66 -3 5 -21 12 -40 15 -38 7 -46 20 -46 77 0 84 48 140 209 244 134 86
162 92 341 71 157 -18 158 -19 191 -128 25 -86 80 -188 129 -239 68 -72 123
-46 188 89 28 58 49 85 98 127 35 29 77 56 94 60 30 7 165 -19 270 -50 25 -8
92 -26 150 -40 156 -38 287 -84 319 -111 16 -13 38 -47 50 -76 52 -126 55
-131 88 -144 35 -15 47 -13 113 21 46 24 180 65 212 65 16 0 18 -8 16 -68 -4
-83 8 -102 63 -102 52 0 200 75 282 143 34 28 104 94 155 147 l92 95 158 17
c394 42 495 45 521 14 13 -16 -33 -87 -182 -284 -101 -133 -126 -182 -92 -182
8 0 21 12 29 28 39 75 241 301 342 383 38 31 117 89 177 129 144 97 146 124 4
69 -57 -22 -60 -22 -111 -6 -68 22 -83 21 -91 -3 -6 -20 -7 -20 -45 2 -34 20
-41 21 -63 9 -23 -12 -29 -11 -53 8 -34 26 -54 27 -54 1 0 -29 -25 -25 -60 10
-36 35 -70 40 -70 10 0 -28 -9 -25 -59 20 -24 22 -46 40 -50 40 -14 -1 -29
-16 -33 -35 -3 -16 -11 -9 -41 37 -44 68 -53 75 -76 54 -10 -9 -20 -16 -23
-16 -4 0 -14 21 -24 48 -24 65 -38 79 -60 62 -14 -12 -18 -12 -30 5 -8 10 -14
27 -14 36 0 50 -35 68 -46 24 -22 -87 69 -274 168 -345 20 -15 34 -30 31 -34
-3 -3 -32 -6 -64 -6 -50 0 -66 5 -131 45 -77 48 -178 85 -232 85 -18 0 -66
-12 -107 -27 -62 -22 -88 -26 -159 -24 -221 6 -254 4 -313 -17 -32 -11 -73
-34 -92 -51 -58 -50 -124 -58 -285 -32 -171 28 -391 84 -444 114 -38 21 -49
34 -101 119 -44 73 -198 116 -316 88 -64 -15 -166 -60 -212 -92 -31 -22 -38
-23 -257 -23 -263 0 -264 0 -423 -108 -54 -37 -104 -67 -111 -67 -20 0 -39 65
-33 112 3 22 18 65 34 96 23 47 41 66 98 105 39 26 81 59 95 72 l25 25 -47 0
c-26 0 -49 4 -53 9 -6 11 18 136 43 218 15 49 24 61 57 80 126 71 527 220 675
250 68 14 86 14 190 -1 63 -9 178 -33 255 -55 77 -21 146 -36 153 -34 23 9 12
28 -44 72 -30 24 -52 47 -47 51 11 11 186 61 343 100 183 44 301 60 523 69
109 5 201 12 205 16 3 3 1 14 -4 23 -10 15 -37 18 -215 22 -172 5 -210 8 -239
24 -48 25 -120 96 -120 119 0 44 47 100 109 132 44 22 122 16 236 -18 44 -13
124 -32 177 -42 93 -18 97 -20 92 -41 -5 -19 -1 -24 21 -30 49 -12 188 4 378
45 387 84 461 94 687 95 273 1 290 -3 450 -110 216 -144 372 -281 474 -413 88
-114 100 -184 66 -386 -12 -71 -25 -133 -29 -138 -4 -4 -22 13 -40 38 -31 43
-68 64 -90 50 -21 -13 -10 -43 46 -126 188 -279 277 -630 309 -1205 l6 -122
-106 -208 c-58 -115 -138 -262 -178 -326 -81 -130 -170 -276 -252 -413 -29
-49 -103 -162 -164 -250 -110 -159 -111 -161 -239 -258 -70 -53 -174 -130
-230 -170 -57 -39 -101 -76 -99 -82 5 -15 53 -7 118 21 64 27 98 31 98 11 0
-7 15 -44 34 -83 18 -39 36 -80 40 -91 5 -15 -23 -61 -114 -189 l-121 -169 98
-3 c83 -2 100 0 108 14 38 63 74 115 105 154 21 25 63 84 95 132 74 113 82
160 39 245 -16 31 -41 64 -57 73 -32 20 -29 24 50 64 29 14 68 39 87 56 35 31
109 146 121 190 4 14 17 39 30 55 12 17 50 82 85 145 73 133 129 224 181 295
21 28 54 79 75 115 21 36 57 91 80 123 23 31 48 74 54 95 15 46 53 112 98 172
19 25 48 72 63 105 15 33 37 74 49 90 11 17 29 59 40 94 18 57 19 74 10 150
-40 328 -76 505 -140 681 -17 47 -38 95 -45 107 -8 11 -20 43 -26 70 -7 26
-17 59 -24 73 -31 63 -38 127 -21 203 51 236 57 395 22 554 -20 92 -110 210
-346 452 -30 31 -95 80 -143 110 -49 30 -108 70 -132 91 -24 21 -83 53 -136
75 -78 31 -107 38 -169 39 -94 1 -231 -17 -318 -43 -93 -27 -141 -37 -262 -55
-182 -26 -327 -39 -377 -32 -63 9 -234 45 -245 52 -5 3 -41 9 -81 14 -40 4
-126 22 -192 39 -126 32 -229 39 -325 20z m-832 -1501 c65 -33 77 -55 56 -107
-12 -30 -40 -61 -103 -114 -55 -46 -94 -88 -108 -116 -47 -92 -82 -104 -133
-43 -58 70 -84 137 -88 232 -4 86 -4 86 24 105 98 64 267 85 352 43z m1738
-164 c66 -28 114 -66 114 -93 0 -16 -26 -50 -82 -108 -137 -140 -254 -218
-350 -230 l-40 -6 4 141 c4 173 -6 193 -50 106 -38 -75 -52 -87 -131 -114 -35
-12 -90 -34 -122 -51 -72 -36 -80 -36 -105 -1 -25 33 -64 146 -64 183 0 40 43
84 118 121 57 28 79 34 154 36 77 4 94 1 144 -22 76 -35 114 -34 159 5 68 60
158 72 251 33z"/>
<path d="M3915 4350 c-266 -51 -467 -57 -627 -20 -98 22 -110 2 -41 -67 27
-27 52 -56 56 -64 4 -8 18 -32 32 -54 13 -22 24 -53 25 -69 l0 -30 -29 28
c-16 15 -37 43 -47 61 -21 40 -31 45 -63 34 -23 -9 -23 -9 -5 -37 33 -50 74
-127 74 -140 0 -8 -15 -1 -37 17 -21 17 -45 31 -54 31 -26 0 -32 -30 -11 -54
11 -12 37 -48 58 -81 21 -33 40 -62 41 -64 2 -3 14 6 27 18 15 14 26 19 31 12
8 -14 38 -14 52 0 6 6 35 12 64 14 30 1 133 8 229 15 181 13 587 8 685 -9 28
-5 95 -16 150 -25 55 -9 135 -24 178 -33 42 -9 80 -13 84 -9 11 11 -10 39 -53
68 -22 14 -100 95 -174 179 -274 309 -339 338 -645 279z m116 -200 c34 -12 73
-28 88 -37 65 -40 151 -141 151 -177 0 -12 -12 -14 -57 -9 -78 6 -79 7 -86 42
-4 16 -19 44 -35 62 -22 25 -36 32 -70 33 -56 1 -73 -16 -44 -47 32 -34 29
-57 -7 -57 -17 0 -33 5 -36 10 -11 17 -25 11 -35 -15 -8 -22 -16 -25 -62 -26
-65 -1 -112 2 -117 7 -3 3 4 30 14 62 29 85 83 138 165 163 41 12 68 10 131
-11z"/>
<path d="M3070 3965 c-10 -12 0 -25 55 -77 37 -35 74 -64 81 -66 24 -6 16 33
-17 79 -54 77 -92 97 -119 64z"/>
<path d="M2957 3923 c-8 -13 124 -145 140 -139 23 9 15 26 -39 81 -51 52 -91
74 -101 58z"/>
<path d="M1497 3858 c-37 -24 -66 -47 -64 -53 2 -5 17 -12 33 -16 16 -3 39
-11 51 -17 12 -7 33 -12 47 -12 33 0 69 57 64 102 -5 51 -46 50 -131 -4z"/>
<path d="M2836 3881 c-3 -5 4 -16 17 -24 12 -8 36 -28 52 -44 28 -28 65 -49
65 -37 0 18 -34 65 -64 87 -35 28 -61 34 -70 18z"/>
<path d="M1728 3815 c5 -43 -30 -100 -80 -130 -36 -21 -106 -25 -200 -12 -57
8 -58 8 -58 -16 0 -14 9 -35 19 -48 17 -21 30 -24 98 -27 115 -6 152 7 213 75
69 79 82 129 42 176 -25 28 -38 21 -34 -18z"/>
<path d="M2720 3840 c0 -13 61 -51 72 -44 9 6 -45 54 -61 54 -6 0 -11 -5 -11
-10z"/>
<path d="M2499 646 c-9 -20 -6 -30 23 -72 19 -27 61 -95 93 -151 33 -56 61
-100 63 -98 5 5 -23 93 -55 170 -30 73 -91 175 -104 175 -5 0 -14 -11 -20 -24z"/>
<path d="M2475 498 c-5 -20 2 -41 34 -95 23 -37 47 -85 53 -106 12 -40 38 -71
38 -45 0 55 -55 196 -98 248 l-20 25 -7 -27z"/>
<path d="M2456 334 c-3 -9 9 -48 28 -87 19 -40 38 -81 42 -92 7 -17 9 -15 12
12 3 30 -54 183 -69 183 -4 0 -10 -7 -13 -16z"/>
</g>
</svg>
