<?xml version="1.0" encoding="utf-8"?>
<!-- Generator: Adobe Illustrator 21.0.2, SVG Export Plug-In . SVG Version: 6.00 Build 0)  -->
<svg version="1.1" id="Ebene_1" xmlns="http://www.w3.org/2000/svg" xmlns:xlink="http://www.w3.org/1999/xlink" x="0px" y="0px"
	 viewBox="0 0 101 38.9" style="enable-background:new 0 0 101 38.9;" xml:space="preserve">
<style type="text/css">
	.st0{fill:#1B181C;}
	.st1{fill:#E73F22;}
	.st2{fill:none;stroke:#E73F22;stroke-width:0.15;}
	.st3{fill:none;stroke:#E73F22;stroke-width:0.35;}
</style>
<polygon class="st0" points="12,19.6 4.9,29.8 12.5,29.8 12.5,32 0,32 0,31 7.6,20.4 1.2,20.4 1.2,18.3 12,18.3 "/>
<path class="st0" d="M17.6,25.5c-0.1,2.6,1.7,4.5,4,4.5c1.3,0,2.8-0.5,3.7-1.1l1,1.9c-1.9,1.1-3.8,1.5-5.4,1.5
	c-4.2,0-7.3-2.9-7.3-7.5c0-4.2,3.1-6.9,7-6.9c4.3,0,6.1,3.4,5.8,7.5H17.6z M23.1,23.5c0.1-2.1-0.6-3.5-2.4-3.5c-2.1,0-3,1.7-3,3.5
	H23.1z"/>
<path class="st0" d="M33.2,20.1L33.2,20.1c1-1.4,2.8-2.2,4.5-2.2c4.3,0,6.1,3.9,6.1,6.9c0,3.6-2.5,7.5-6.4,7.5c-1.7,0-3.1-0.8-4.1-2
	v8.6h-3.7V18.3h3.7V20.1z M33.2,25.3c0,2.9,1.4,4.8,3.4,4.8c2.4,0,3.3-2.9,3.3-5.3c0-2.4-1-4.7-3.1-4.7
	C34.4,20.1,33.2,22.1,33.2,25.3"/>
<path class="st0" d="M50.3,19.9c1.2-1.3,3-2,4.7-2c3.2,0,4.9,1.8,4.9,5.2V32h-3.7v-8.4c0-1.9-0.9-3.2-2.8-3.2
	c-1.8,0-3.2,1.2-3.2,3.4V32h-3.7V11.8h3.6V19.9z"/>
<rect x="63.7" y="18.3" class="st0" width="3.7" height="13.8"/>
<path class="st0" d="M74.7,20.7L74.7,20.7l0.8-1.1c0.4-0.6,1.2-1.7,2.4-1.7c0.8,0,1.7,0.4,2.5,1.2L79,21.7c-0.6-0.3-1-0.5-1.7-0.5
	c-1.3,0-2.5,1-2.5,4V32h-3.7V18.3h3.6V20.7z"/>
<path class="st1" d="M83.4,7.7c0,6.6,7.7,2.8,8.6,5.1c-3-1.4-6.6,3.2-9.4-0.5C81.8,11.3,81.8,8.8,83.4,7.7"/>
<path class="st2" d="M83.4,7.7c0,6.6,7.7,2.8,8.6,5.1c-3-1.4-6.6,3.2-9.4-0.5C81.8,11.3,81.8,8.8,83.4,7.7z"/>
<path class="st1" d="M88.3,15.8c6.3,2,5-6.5,7.5-6.6c-2.2,2.4,1,7.3-3.4,8.8C91.2,18.5,88.8,17.6,88.3,15.8"/>
<path class="st2" d="M88.3,15.8c6.3,2,5-6.5,7.5-6.6c-2.2,2.4,1,7.3-3.4,8.8C91.2,18.5,88.8,17.6,88.3,15.8z"/>
<path class="st1" d="M97.6,13.7c3.9-5.3-4.6-6.8-4-9.2c1.6,2.9,7.2,1.3,7.4,5.9C101,11.7,99.4,13.7,97.6,13.7"/>
<path class="st2" d="M97.6,13.7c3.9-5.3-4.6-6.8-4-9.2c1.6,2.9,7.2,1.3,7.4,5.9C101,11.7,99.4,13.7,97.6,13.7z"/>
<path class="st1" d="M98.4,4.2c-3.9-5.3-7.9,2.3-10,0.9c3.2-0.6,3.5-6.5,7.9-5.2C97.6,0.4,99,2.4,98.4,4.2"/>
<path class="st2" d="M98.4,4.2c-3.9-5.3-7.9,2.3-10,0.9c3.2-0.6,3.5-6.5,7.9-5.2C97.6,0.4,99,2.4,98.4,4.2z"/>
<path class="st1" d="M89.7,0.5c-6.3,2-0.2,8.2-2.2,9.8C87.8,7,82.4,5,85,1.1C85.7,0.1,88.1-0.6,89.7,0.5"/>
<path class="st2" d="M89.7,0.5c-6.3,2-0.2,8.2-2.2,9.8C87.8,7,82.4,5,85,1.1C85.7,0.1,88.1-0.6,89.7,0.5z"/>
<path class="st1" d="M91.5,7.2c0.6,0,1.1,0.5,1.1,1.1c0,0.6-0.5,1.1-1.1,1.1c-0.6,0-1.1-0.5-1.1-1.1C90.3,7.8,90.8,7.2,91.5,7.2"/>
<circle class="st3" cx="91.5" cy="8.4" r="1.1"/>
</svg>
