<svg xmlns="http://www.w3.org/2000/svg" xmlns:xlink="http://www.w3.org/1999/xlink" id="Ebene_1" width="532.6" height="95.9" x="0" style="enable-background:new 0 0 532.6 95.9" y="0" version="1.1" viewBox="0 0 532.6 95.9" xml:space="preserve"><style type="text/css">.st0{fill:#fff}</style><path d="M93.7,33.5c1.4-15.6-11.9-33-34.3-33H9.5L0,95.3h24.2l2.9-28.7h23.2L63,95.3h26.3L75,63	C88.1,55.8,92.6,45.7,93.7,33.5z M57.6,42.6H29.4l1.9-18.2c10.5,0.1,23.9,0.1,28.7,0.1c6.2,0,9.6,4.3,9.6,8.7	C69.6,39,64.7,42.6,57.6,42.6z M180.2,24.4l2.4-23.9h-47.8c-21.9,0-34.7,13.3-38,45.4c-3.1,30.4,10.4,49.4,34.8,49.4H173l2.5-24.1	c-13.8-0.1-36.2-0.4-43.2-0.4c-8.3,0-11.5-3.3-11.9-13.1h48.2l2.1-21.3h-48.1c2-8.6,6.2-11.9,12-11.9L180.2,24.4z M233.9,0.5h-45.7	l-9.6,94.8h50.3C275.6,95.3,283.7,0.5,233.9,0.5z M243.9,45.8c-1.7,17.4-8,25.5-15.5,25.5h-23.2l4.7-46.7h23	C240,24.5,245.1,33.1,243.9,45.8z M328.4,0.5h-18.6c-20.9,0-33.5,13.8-35.9,35.6l-6,59.3h24.2l3-30h40.2l-3.1,30h24.1l5.9-56.8	C364.5,15.6,349.8,0.6,328.4,0.5z M338.3,36.1l-0.8,7.9h-40.3l0.6-5.5c1.1-10.6,4.6-13.9,12.1-14.1h18.4	C336.3,24.4,339.2,28.6,338.3,36.1z M418.7,52.1l34.1-51.4h-30.1l-18.6,29l-17.6-29h-26.9L390.4,50l-30.8,45.2h31.1l15-22.5	L420,95.2h28.3L418.7,52.1z M498.9,0h-21.8c-20.5,0-34.1,18.1-36.9,45.7c-2.9,29.2,8.1,50.2,35.1,50.2l19.1-0.1	c23,0.2,34.6-16.1,37.8-47.7C535.4,16.4,520.5,0,498.9,0z M508,48.7c-1.9,18.2-6.3,23-15.1,23c-2,0-17,0.1-17,0.1	c-8.1,0.2-13.6-4.3-11.7-23.1c1.7-16.9,6.5-24.2,14.6-24.2c0,0,18.3,0,19.5,0C507.2,24.4,509.8,29.7,508,48.7z" class="st0"/></svg>