<?xml version="1.0" encoding="utf-8"?>
<!-- Generator: Adobe Illustrator 21.1.0, SVG Export Plug-In . SVG Version: 6.00 Build 0)  -->
<!DOCTYPE svg PUBLIC "-//W3C//DTD SVG 1.1//EN" "http://www.w3.org/Graphics/SVG/1.1/DTD/svg11.dtd">
<svg version="1.1" id="Ebene_1" xmlns="http://www.w3.org/2000/svg" xmlns:xlink="http://www.w3.org/1999/xlink" x="0px" y="0px"
	 width="200px" height="30.1px" viewBox="0 0 200 30.1" style="enable-background:new 0 0 200 30.1;" xml:space="preserve">
<style type="text/css">
	.st0{fill:#3999D5;}
	.st1{fill:#364053;}
</style>
<path class="st0" d="M21.7,10.5c0,1.8-1.5,2.9-3.7,2.9H9.2l0.6-5.7c3.3,0,7.5,0,9,0C20.7,7.7,21.7,9.1,21.7,10.5 M29.3,10.6
	c0.4-4.9-3.7-10.3-10.7-10.3H3L0,29.9h7.6l0.9-9h7.2l4,9h8.2l-4.5-10.1C27.5,17.5,28.9,14.4,29.3,10.6 M56.3,7.7l0.7-7.5H42.1
	c-6.8,0-10.8,4.2-11.9,14.2c-1,9.5,3.2,15.4,10.9,15.4h12.9l0.8-7.5c-4.3,0-11.3-0.1-13.5-0.1c-2.6,0-3.6-1-3.7-4.1h15.1l0.7-6.7
	h-15c0.6-2.7,1.9-3.7,3.7-3.7L56.3,7.7z M76.2,14.4c-0.5,5.4-2.5,8-4.8,8h-7.2l1.5-14.6h7.2C75,7.7,76.6,10.4,76.2,14.4 M73.1,0.2
	H58.8l-3,29.6h15.7C86.1,29.9,88.6,0.2,73.1,0.2 M177,22l0.3-2.7h-4.7c-2.7,0-4.1,2-4.3,5.2c-0.3,3.5,1.1,5.7,4,5.7c0.7,0,2.4,0,4,0
	l0.3-2.7c-1.5,0-3.3,0-4.1,0c-1,0-1.7-0.5-1.4-2.6c0.3-2.4,0.9-2.7,1.8-2.7L177,22z M190.3,23.6c0.2-2.6-1.4-4.3-3.9-4.4l-8-0.1
	l-1,10.9h2.7L181,22l1.9,0l-0.8,8.1h2.7l0.8-8.1h0.8c0.8,0,1.2,0.3,1.1,1.3l-0.7,6.8h2.7L190.3,23.6z M199.5,22l0.3-2.7h-4.6
	c-4.7,0-4.9,6.6-0.3,6.6h1.8c0.9,0,0.9,1.5-0.2,1.5h-5.2l-0.3,2.7h5.4c4.6,0,4.9-6.7,0.4-6.7h-1.9c-0.9,0-1-1.4,0.2-1.4L199.5,22z"
	/>
<path class="st1" d="M105.7,11.4l-0.2,2.5H92.9l0.2-1.7c0.3-3.3,1.4-4.3,3.8-4.4h5.7C105.1,7.7,106,9,105.7,11.4 M102.6,0.2h-5.8
	c-6.5,0-10.5,4.3-11.2,11.1l-1.9,18.5h7.6l0.9-9.4h12.6l-1,9.4h7.5l1.8-17.7C113.9,5,109.3,0.3,102.6,0.2 M130.8,16.4l10.7-16.1
	h-9.4l-5.8,9.1l-5.5-9.1h-8.4l9.6,15.4l-9.6,14.1h9.7l4.7-7l4.5,7h8.8L130.8,16.4z M158.7,15.3c-0.6,5.7-2,7.2-4.7,7.2
	c-0.6,0-5.3,0-5.3,0c-2.5,0.1-4.2-1.3-3.7-7.2c0.5-5.3,2-7.6,4.6-7.6c0,0,5.7,0,6.1,0C158.5,7.7,159.3,9.4,158.7,15.3 M166.3,15.1
	c1-9.9-3.7-15-10.4-15h-6.8c-6.4,0-10.7,5.7-11.5,14.3c-0.9,9.1,2.5,15.7,11,15.7l6,0C161.7,30.1,165.3,25,166.3,15.1 M175.8,4.5
	c-0.1,0.4-0.4,0.6-1,0.6h-0.2l0.2-1.5h0.3C175.7,3.6,176,3.9,175.8,4.5 M177.4,4.7c0.5-1.5-0.4-2.5-2-2.5h-2l-0.8,6.7h1.6l0.3-2.4
	l1.2,2.4h1.9l-1.5-2.8C176.6,5.9,177.1,5.4,177.4,4.7 M177.9,8.6c-1.6,1.7-4.3,1.7-5.9,0c-0.8-0.8-1.2-1.9-1.2-3
	c0-1.2,0.4-2.2,1.2-3c1.6-1.7,4.3-1.7,5.9,0C179.5,4.2,179.5,6.9,177.9,8.6 M180.5,5.6c0-3.1-2.5-5.6-5.6-5.6s-5.6,2.5-5.6,5.6
	c0,3.1,2.5,5.6,5.6,5.6C178,11.2,180.5,8.7,180.5,5.6"/>
</svg>
